<svg width="217" height="51" xmlns="http://www.w3.org/2000/svg"><g fill="none" fill-rule="evenodd"><rect fill="#000" width="217" height="51" rx="5"/><path d="M65.384 32.28c2.221 0 3.995-.681 5.32-2.044.71-.747 1.064-1.69 1.064-2.828 0-1.139-.523-2.119-1.568-2.94 1.512-1.25 2.268-2.66 2.268-4.228 0-.84-.345-1.6-1.036-2.282a5.661 5.661 0 00-2.436-1.428c-.933-.27-1.76-.406-2.478-.406-.719 0-1.32.028-1.806.084 0-1.045-.14-1.568-.42-1.568-.69 0-1.195.635-1.512 1.904-2.52.616-3.78 1.736-3.78 3.36 0 .187.056.369.168.546.112.177.331.266.658.266a.957.957 0 00.784-.364c.196-.243.331-.672.406-1.288.075-.747.607-1.288 1.596-1.624-.075.541-.112 1.39-.112 2.548 0 1.157-.051 2.679-.154 4.564-.103 1.885-.154 2.959-.154 3.22 0 1.064.112 1.708.336 1.932.224.224.737.336 1.54.336.205 0 .308-.71.308-2.128 0-3.677.056-6.412.168-8.204.075-1.195.121-2.063.14-2.604.13-.019.327-.028.588-.028 1.25 0 2.422.369 3.514 1.106 1.092.737 1.638 1.731 1.638 2.982 0 1.008-.373 1.913-1.12 2.716-.784-.392-1.507-.588-2.17-.588s-1.171.107-1.526.322c-.355.215-.532.453-.532.714 0 .896.719 1.344 2.156 1.344.616 0 1.241-.159 1.876-.476.579.784.868 1.638.868 2.562 0 .924-.387 1.74-1.162 2.45-.775.71-1.666 1.064-2.674 1.064-.43 0-1.055-.13-1.876-.392-.821-.261-1.353-.392-1.596-.392-.765 0-1.148.196-1.148.588 0 .243.07.443.21.602.14.159.275.257.406.294.653.205 1.736.308 3.248.308zm2.184-7.448c-.915 0-1.372-.215-1.372-.644 0-.205.247-.308.742-.308s1.022.233 1.582.7a1.912 1.912 0 01-.952.252zM80.56 32.14c1.008 0 2.25-1.568 3.724-4.704.541-1.139.812-1.97.812-2.492 0-.15-.06-.224-.182-.224-.121 0-.457.607-1.008 1.82-.55 1.213-1.106 2.207-1.666 2.982-.56.775-.999 1.171-1.316 1.19-.112 0-.168-.252-.168-.756 0-2.707.103-4.321.308-4.844.13-.243.247-.635.35-1.176.103-.541.154-.905.154-1.092 0-.71-.135-1.064-.406-1.064-.27 0-.611.196-1.022.588-.41.392-.667.663-.77.812-.103.15-.238 1.157-.406 3.024-.579 1.475-1.157 2.585-1.736 3.332-.579.747-1.083 1.12-1.512 1.12-.355 0-.532-.55-.532-1.652 0-1.101.14-2.51.42-4.228.355-.821.532-1.633.532-2.436 0-.224-.028-.373-.084-.448-.056-.075-.191-.112-.406-.112-.215 0-.56.182-1.036.546-.476.364-.807.64-.994.826-.187.187-.28 1.279-.28 3.276l-.168 3.136c0 .933.121 1.596.364 1.988.243.392.733.588 1.47.588s1.405-.331 2.002-.994c.597-.663 1.195-1.629 1.792-2.898a33.18 33.18 0 00-.084 2.24c0 .672.065 1.073.196 1.204.373.299.924.448 1.652.448zm5.908 8.82c1.456 0 2.469-.48 3.038-1.442.57-.961.9-2.627.994-4.998.037-.803.112-2.315.224-4.536 1.755-2.203 2.93-3.743 3.528-4.62a.742.742 0 00.112-.364c0-.187-.093-.28-.28-.28-.093 0-.2.065-.322.196-.121.13-1.097 1.353-2.926 3.668.056-.99.159-2.147.308-3.472.13-.243.247-.635.35-1.176.103-.541.154-.905.154-1.092 0-.71-.135-1.064-.406-1.064-.27 0-.658.21-1.162.63-.504.42-.76.677-.77.77-.01.093-.023.247-.042.462-.019.215-.037.55-.056 1.008-.019.457-.037.891-.056 1.302-.616 1.55-1.218 2.72-1.806 3.514-.588.793-1.106 1.19-1.554 1.19-.261 0-.392-.55-.392-1.652 0-1.101.14-2.51.42-4.228.355-.821.532-1.633.532-2.436 0-.224-.028-.373-.084-.448-.056-.075-.191-.112-.406-.112-.215 0-.56.182-1.036.546-.476.364-.807.64-.994.826-.187.187-.28 1.279-.28 3.276l-.168 3.136c0 .97.103 1.643.308 2.016.205.373.681.56 1.428.56.747 0 1.428-.36 2.044-1.078.616-.719 1.241-1.778 1.876-3.178l-.168 3.052c-1.904 2.053-3.215 3.575-3.934 4.564-.719.99-1.078 1.955-1.078 2.898 0 .943.275 1.605.826 1.988.55.383 1.143.574 1.778.574zm.392-1.008c-.392 0-.7-.205-.924-.616-.224-.41-.336-.933-.336-1.568 0-1.381 1.064-3.22 3.192-5.516l-.14 2.744c-.112 1.997-.29 3.323-.532 3.976-.243.653-.663.98-1.26.98zm24.22-7.812c1.008 0 2.25-1.568 3.724-4.704.541-1.139.812-1.97.812-2.492 0-.15-.06-.224-.182-.224-.121 0-.457.607-1.008 1.82-.55 1.213-1.106 2.207-1.666 2.982-.56.775-.999 1.171-1.316 1.19-.112 0-.168-.21-.168-.63 0-.42.089-1.428.266-3.024.177-1.596.266-2.805.266-3.626 0-.392-.154-.719-.462-.98-.308-.261-.635-.392-.98-.392s-.733.215-1.162.644c-.224.205-.434.41-.63.616-.196.205-.574.653-1.134 1.344-.56.69-.877 1.11-.952 1.26 0-.056.01-.187.028-.392.019-.205.033-.49.042-.854.01-.364.014-.751.014-1.162 0-.41-.154-.756-.462-1.036-.308-.28-.64-.42-.994-.42-.56 0-1.185.541-1.876 1.624-.392.579-1.083 1.792-2.072 3.64 0-.41.047-1.148.14-2.212.373-.877.56-1.81.56-2.8 0-.205-.028-.345-.084-.42-.056-.075-.191-.112-.406-.112-.215 0-.56.177-1.036.532-.476.355-.807.625-.994.812-.187.187-.28.728-.28 1.624V26.4c0 .635-.051 1.582-.154 2.842-.103 1.26-.154 1.997-.154 2.212 0 .215.205.383.616.504.41.121.84.182 1.288.182.299 0 .448-.261.448-.784l-.028-.868c0-.579.042-1.12.126-1.624.084-.504.537-1.395 1.358-2.674.821-1.279 1.34-1.918 1.554-1.918.215 0 .322.331.322.994s-.056 1.806-.168 3.43c-.112 1.624-.168 2.543-.168 2.758 0 .215.191.383.574.504.383.121.789.182 1.218.182.28 0 .42-.261.42-.784 0-2.11.056-3.481.168-4.116.056-.336.49-.915 1.302-1.736s1.34-1.232 1.582-1.232c.205 0 .308.308.308.924 0 .616-.051 1.545-.154 2.786-.103 1.241-.154 2.137-.154 2.688 0 .55.065.891.196 1.022.373.299.877.448 1.512.448zm6.272 0c1.81 0 3.332-.999 4.564-2.996 1.139-1.867 1.708-3.267 1.708-4.2 0-.15-.051-.224-.154-.224-.103 0-.196.075-.28.224-.084.15-.2.392-.35.728a16.342 16.342 0 01-2.016 3.5c-.373.485-.784.859-1.232 1.12a2.945 2.945 0 01-1.512.392c-.56 0-1.05-.266-1.47-.798-.42-.532-.667-1.162-.742-1.89 1.363-.037 2.515-.434 3.458-1.19.943-.756 1.414-1.694 1.414-2.814 0-.597-.205-1.069-.616-1.414-.41-.345-.933-.518-1.568-.518-1.363 0-2.473.523-3.332 1.568s-1.288 2.585-1.288 4.62a4.29 4.29 0 00.924 2.702c.616.793 1.447 1.19 2.492 1.19zm-1.484-4.816c.037-1.101.28-2.105.728-3.01.448-.905.999-1.358 1.652-1.358.541 0 .812.42.812 1.26 0 .84-.257 1.521-.77 2.044-.513.523-1.32.877-2.422 1.064zm19.712 4.816c1.008 0 2.25-1.568 3.724-4.704.541-1.139.812-1.97.812-2.492 0-.15-.06-.224-.182-.224-.121 0-.457.607-1.008 1.82-.55 1.213-1.106 2.207-1.666 2.982-.56.775-.999 1.171-1.316 1.19-.112 0-.168-.252-.168-.756 0-2.613.084-4.135.252-4.564.13-.243.247-.635.35-1.176.103-.541.154-.905.154-1.092 0-.71-.135-1.064-.406-1.064-.27 0-.597.145-.98.434-.383.29-.649.537-.798.742-.747-.784-1.419-1.176-2.016-1.176-1.381 0-2.497.579-3.346 1.736-.85 1.157-1.274 2.487-1.274 3.99 0 1.503.28 2.604.84 3.304.56.7 1.213 1.05 1.96 1.05.747 0 1.358-.294 1.834-.882.476-.588.957-1.489 1.442-2.702-.037.896-.056 1.61-.056 2.142 0 .532.065.863.196.994.373.299.924.448 1.652.448zm-4.284-1.484c-.504 0-.91-.336-1.218-1.008-.308-.672-.462-1.53-.462-2.576 0-1.045.294-1.955.882-2.73.588-.775 1.143-1.162 1.666-1.162.317 0 .686.135 1.106.406.42.27.714.555.882.854-.019.187-.042.462-.07.826-.028.364-.051.62-.07.77-1.195 3.08-2.1 4.62-2.716 4.62zm15.96 1.484c1.4 0 2.567-.523 3.5-1.568.448-.504.817-.985 1.106-1.442.29-.457.649-1.115 1.078-1.974.43-.859.644-1.596.644-2.212 0-.15-.051-.224-.154-.224-.103 0-.196.075-.28.224-.084.15-.2.392-.35.728a16.342 16.342 0 01-2.016 3.5c-.373.485-.784.859-1.232 1.12a2.972 2.972 0 01-1.526.392c-.57 0-1.05-.294-1.442-.882-.392-.588-.588-1.358-.588-2.31s.252-1.946.756-2.982c.504-1.036 1.101-1.554 1.792-1.554a.61.61 0 01.504.252.89.89 0 01.196.56l-.224 1.428c0 .355.159.532.476.532.373 0 .69-.177.952-.532.261-.355.392-.896.392-1.624 0-.392-.173-.742-.518-1.05-.345-.308-.817-.462-1.414-.462-1.419 0-2.59.555-3.514 1.666-.924 1.11-1.386 2.73-1.386 4.858 0 .859.275 1.666.826 2.422.55.756 1.358 1.134 2.422 1.134zm8.344 0c1.587 0 2.81-.485 3.668-1.456.859-.97 1.353-2.24 1.484-3.808.859-.336 1.577-.714 2.156-1.134.579-.42.868-.714.868-.882 0-.168-.075-.252-.224-.252a.479.479 0 00-.224.084l-.336.196c-.15.093-.369.229-.658.406-.29.177-.807.387-1.554.63-.019-1.232-.336-2.23-.952-2.996-.616-.765-1.283-1.148-2.002-1.148-.719 0-1.34.187-1.862.56-1.157 0-2.105.55-2.842 1.652-.737 1.101-1.106 2.273-1.106 3.514 0 1.241.308 2.324.924 3.248.616.924 1.503 1.386 2.66 1.386zm3.388-5.824h-.336a2.41 2.41 0 01-1.666-.644c-.476-.43-.714-.99-.714-1.68 0-.317.084-.611.252-.882.168-.27.401-.406.7-.406.597 0 1.031.373 1.302 1.12.27.747.425 1.577.462 2.492zM156.3 30.88c-.803 0-1.39-.406-1.764-1.218a6.063 6.063 0 01-.56-2.562c0-1.867.401-3.117 1.204-3.752-.205.448-.308.98-.308 1.596 0 .616.299 1.18.896 1.694.597.513 1.325.77 2.184.77l1.008-.056c-.075.99-.336 1.825-.784 2.506-.448.681-1.073 1.022-1.876 1.022zm7.938 10.08c.588 0 1.078-.247 1.47-.742.392-.495.69-1.097.896-1.806.205-.71.373-1.535.504-2.478.13-.943.215-1.773.252-2.492.037-.719.056-1.647.056-2.786s-.15-2.361-.448-3.668a9.965 9.965 0 001.624-.672c-.485 3.92-.728 7.355-.728 10.304 0 .84.205 1.437.616 1.792.41.355.877.532 1.4.532.915 0 1.652-.747 2.212-2.24.56-1.493.84-3.495.84-6.006 0-2.51-.28-4.55-.84-6.118.672.205 1.26.308 1.764.308s.947-.051 1.33-.154c.383-.103.574-.257.574-.462 0-.243-.112-.364-.336-.364-.037 0-.22.033-.546.098-.327.065-.775.098-1.344.098-.57 0-1.125-.121-1.666-.364l-.084-.196c.579-.728 1.073-1.713 1.484-2.954.41-1.241.616-2.31.616-3.206 0-.896-.103-1.577-.308-2.044-.205-.467-.448-.7-.728-.7-1.419 0-2.604 2.39-3.556 7.168-1.008 0-1.512.35-1.512 1.05 0 .7.383 1.125 1.148 1.274l-.196 1.064a9.691 9.691 0 01-2.016.812c-.373-1.064-.793-1.848-1.26-2.352 1.53-2.632 2.296-4.975 2.296-7.028 0-1.325-.299-1.988-.896-1.988-.523 0-1.06.373-1.61 1.12-.55.747-.943 1.652-1.176 2.716a71.902 71.902 0 00-.742 4.088 1.493 1.493 0 00-.336-.028c-.523 0-.957.224-1.302.672-.345.448-.518 1.008-.518 1.68 0 1.101.532 1.867 1.596 2.296-.373 3.901-.56 7.513-.56 10.836 0 1.176.191 1.96.574 2.352.383.392.868.588 1.456.588zm.742-17.752c.28-2.24.593-4.032.938-5.376.345-1.344.667-2.016.966-2.016.168 0 .252.373.252 1.12 0 1.68-.719 3.77-2.156 6.272zm6.468-.308c-.187-.299-.373-.523-.56-.672.635-4.032 1.297-6.048 1.988-6.048.224 0 .336.607.336 1.82 0 .635-.224 1.545-.672 2.73-.448 1.185-.812 1.909-1.092 2.17zm-8.512 2.8c-.597-.41-.896-.896-.896-1.456 0-.56.261-.84.784-.84.112 0 .233.019.364.056l-.252 2.24zm7.42 12.152c-.317 0-.476-1.717-.476-5.152 0-1.979.205-4.536.616-7.672l.504-.504c.71 1.008 1.064 3.285 1.064 6.832 0 1.68-.173 3.183-.518 4.508-.345 1.325-.742 1.988-1.19 1.988zm-5.684-11.62c.019-.355.065-.868.14-1.54l.056-.112c.336.373.635.905.896 1.596-.448.037-.812.056-1.092.056zm.112 13.636c-.205 0-.336-.392-.392-1.176-.056-.784-.084-2.221-.084-4.312 0-2.09.093-4.415.28-6.972.56 0 1.064-.065 1.512-.196.392 1.4.588 3.043.588 4.928 0 1.885-.177 3.645-.532 5.278-.355 1.633-.812 2.45-1.372 2.45zm12.712-7.728c1.81 0 3.332-.999 4.564-2.996 1.139-1.867 1.708-3.267 1.708-4.2 0-.15-.051-.224-.154-.224-.103 0-.196.075-.28.224-.084.15-.2.392-.35.728a16.342 16.342 0 01-2.016 3.5c-.373.485-.784.859-1.232 1.12a2.945 2.945 0 01-1.512.392c-.56 0-1.05-.266-1.47-.798-.42-.532-.667-1.162-.742-1.89 1.363-.037 2.515-.434 3.458-1.19.943-.756 1.414-1.694 1.414-2.814 0-.597-.205-1.069-.616-1.414-.41-.345-.933-.518-1.568-.518-1.363 0-2.473.523-3.332 1.568s-1.288 2.585-1.288 4.62a4.29 4.29 0 00.924 2.702c.616.793 1.447 1.19 2.492 1.19zm-1.484-4.816c.037-1.101.28-2.105.728-3.01.448-.905.999-1.358 1.652-1.358.541 0 .812.42.812 1.26 0 .84-.257 1.521-.77 2.044-.513.523-1.32.877-2.422 1.064zm9.688 4.816c1.81 0 3.332-.999 4.564-2.996 1.139-1.867 1.708-3.267 1.708-4.2 0-.15-.051-.224-.154-.224-.103 0-.196.075-.28.224-.084.15-.2.392-.35.728a16.342 16.342 0 01-2.016 3.5c-.373.485-.784.859-1.232 1.12a2.945 2.945 0 01-1.512.392c-.56 0-1.05-.266-1.47-.798-.42-.532-.667-1.162-.742-1.89 1.363-.037 2.515-.434 3.458-1.19.943-.756 1.414-1.694 1.414-2.814 0-.597-.205-1.069-.616-1.414-.41-.345-.933-.518-1.568-.518-1.363 0-2.473.523-3.332 1.568s-1.288 2.585-1.288 4.62a4.29 4.29 0 00.924 2.702c.616.793 1.447 1.19 2.492 1.19zm-1.484-4.816c.037-1.101.28-2.105.728-3.01.448-.905.999-1.358 1.652-1.358.541 0 .812.42.812 1.26 0 .84-.257 1.521-.77 2.044-.513.523-1.32.877-2.422 1.064z" fill="#FFF" fill-rule="nonzero"/><path fill="#FF9100" fill-rule="nonzero" d="M30.835 15.655l-8.74-.052 4.292 27.113h10.456l4.292-27.113z"/><path fill="#FD0" fill-rule="nonzero" d="M30.835 15.655l-8.74-.052 4.292 27.113h8.272l4.291-27.113z"/><path fill="#FFF" fill-rule="nonzero" d="M19.599 15.603h22.55v-2.5H19.6z"/><path stroke="#000" stroke-width="1.17" d="M19.599 15.603h22.55v-2.5H19.6z"/><path fill="#FFF" fill-rule="nonzero" d="M37.78 9.04H23.813l-1.64 3.75H39.419z"/><path stroke="#050505" d="M37.78 9.04H23.813l-1.64 3.75H39.419z"/><path stroke="#000" d="M30.835 15.655l-10.3-.052 4.292 27.113h12.016l4.292-27.113z"/><path fill="#FFF" fill-rule="nonzero" d="M41.447 23.26H20.146l1.922 10.783 8.728-.094 8.728.094z"/><path stroke="#000" stroke-width="1.17" d="M41.447 23.26H20.146l1.922 10.783 8.728-.094 8.728.094z"/></g></svg>