<svg width="172" height="147" viewBox="0 0 172 147" fill="none" xmlns="http://www.w3.org/2000/svg">
<rect x="50" y="48" width="72" height="12" fill="white"/>
<path fill-rule="evenodd" clip-rule="evenodd" d="M121.723 132.118C121.723 132.118 117.512 136.031 113.862 136.232C110.212 136.432 109.931 132.214 99.262 128.799C88.5931 125.384 85.7852 134.023 85.7852 134.023C85.7852 134.023 82.9777 125.384 72.3086 128.799C61.6397 132.214 61.3585 136.432 57.7088 136.232C54.059 136.031 49.8476 132.118 49.8476 132.118C49.8476 132.118 43.3899 141.454 54.6205 145.272C65.8511 149.089 82.1354 144.267 85.7852 139.846C89.4351 144.267 105.719 149.089 116.95 145.272C128.18 141.454 121.723 132.118 121.723 132.118Z" fill="black"/>
<path fill-rule="evenodd" clip-rule="evenodd" d="M123.419 60.7588V60.8208C129.557 60.1006 135.688 59.2224 141.803 58.1487C144.314 57.7143 146.693 59.3954 147.128 61.9134C147.565 64.4313 145.89 66.8289 143.385 67.2689C124.289 70.6199 105.059 72.2935 85.8267 72.2935C66.5964 72.2935 47.366 70.6199 28.2687 67.2689C25.7642 66.8289 24.0883 64.4313 24.5253 61.9134C24.9622 59.3954 27.3411 57.7124 29.8511 58.1487C35.9664 59.2224 42.0968 60.1006 48.2354 60.8208V38.797C48.2354 17.9221 65.0663 1 85.8278 1C106.589 1 123.419 17.9221 123.419 38.797V46.567H123.418V60.7588H48.2363H123.419ZM50.0765 58.9084H121.576V48.4182H50.0765V58.9084Z" fill="black"/>
<path fill-rule="evenodd" clip-rule="evenodd" d="M11.6165 94.194H18.3541C18.3541 91.2247 17.6506 89.0641 16.2439 87.7083C14.8369 86.3525 12.5588 85.6755 9.40939 85.6755C6.36325 85.6755 4.09167 86.4108 2.59445 87.8832C1.09724 89.3537 0.348635 91.4974 0.348635 94.3106C0.348635 95.9372 0.626 97.2535 1.18111 98.2595C1.73603 99.2674 2.43311 100.08 3.27198 100.7C4.11104 101.319 5.02098 101.823 6.00201 102.21C6.98286 102.598 7.89281 102.978 8.73186 103.352C9.57073 103.726 10.2678 104.177 10.8227 104.708C11.3778 105.236 11.6552 105.952 11.6552 106.857C11.6552 107.605 11.4551 108.237 11.0552 108.754C10.655 109.27 10.0805 109.529 9.33191 109.529C8.63502 109.529 8.06712 109.29 7.62823 108.813C7.18933 108.335 6.96988 107.502 6.96988 106.313V105.655H0V106.624C0 108.07 0.20666 109.283 0.619606 110.264C1.03274 111.244 1.63279 112.039 2.42014 112.645C3.20748 113.252 4.17554 113.677 5.3243 113.924C6.47307 114.168 7.79597 114.29 9.29318 114.29C12.4685 114.29 14.895 113.627 16.573 112.297C18.2509 110.968 19.0898 108.831 19.0898 105.888C19.0898 104.211 18.7994 102.848 18.2185 101.802C17.6379 100.757 16.9084 99.9124 16.0308 99.2674C15.1532 98.6225 14.2109 98.0997 13.2041 97.6992C12.1973 97.2986 11.2552 96.9056 10.3774 96.5182C9.49984 96.1308 8.7706 95.672 8.18973 95.1436C7.60886 94.6133 7.31852 93.8969 7.31852 92.9943C7.31852 92.3737 7.49923 91.8133 7.86065 91.3094C8.22189 90.8054 8.78997 90.5553 9.56434 90.5553C10.2612 90.5553 10.7776 90.8449 11.1133 91.4259C11.4487 92.007 11.6165 92.7103 11.6165 93.5358V94.194Z" fill="black"/>
<path fill-rule="evenodd" clip-rule="evenodd" d="M30.668 91.8716L28.6931 103.604H32.7201L30.7452 91.8716H30.668ZM35.2371 86.217L41.9745 113.865H34.3078L33.5719 109.025H27.8413L27.1054 113.865H19.5547L26.1761 86.217H35.2371Z" fill="black"/>
<path fill-rule="evenodd" clip-rule="evenodd" d="M43.1748 86.217V113.865H59.2442V107.979H50.3769V86.217H43.1748Z" fill="black"/>
<path fill-rule="evenodd" clip-rule="evenodd" d="M61.1028 86.217V113.865H77.8305V107.979H68.3051V102.481H76.9012V96.8265H68.3051V92.1028H77.4821V86.217H61.1028Z" fill="black"/>
<path fill-rule="evenodd" clip-rule="evenodd" d="M91.2282 94.194H97.9657C97.9657 91.2247 97.2622 89.0641 95.8555 87.7083C94.4485 86.3525 92.1703 85.6755 89.021 85.6755C85.9748 85.6755 83.7032 86.4108 82.206 87.8832C80.7088 89.3537 79.9602 91.4974 79.9602 94.3106C79.9602 95.9372 80.2376 97.2535 80.7927 98.2595C81.3476 99.2674 82.0447 100.08 82.8836 100.7C83.7226 101.319 84.6326 101.823 85.6136 102.21C86.5944 102.598 87.5044 102.978 88.3434 103.352C89.1823 103.726 89.8794 104.177 90.4343 104.708C90.9894 105.236 91.2668 105.952 91.2668 106.857C91.2668 107.605 91.0669 108.237 90.6667 108.754C90.2666 109.27 89.6923 109.529 88.9435 109.529C88.2466 109.529 87.6787 109.29 87.2398 108.813C86.8009 108.335 86.5816 107.502 86.5816 106.313V105.655H79.6116V106.624C79.6116 108.07 79.8182 109.283 80.2312 110.264C80.6443 111.244 81.2444 112.039 82.0317 112.645C82.8191 113.252 83.7871 113.677 84.9359 113.924C86.0846 114.168 87.4075 114.29 88.9049 114.29C92.0801 114.29 94.5066 113.627 96.1845 112.297C97.8625 110.968 98.7015 108.831 98.7015 105.888C98.7015 104.211 98.411 102.848 97.8301 101.802C97.2494 100.757 96.5202 99.9124 95.6424 99.2674C94.7648 98.6225 93.8225 98.0997 92.8157 97.6992C91.8089 97.2986 90.8668 96.9056 89.989 96.5182C89.1114 96.1308 88.3822 95.672 87.8013 95.1436C87.2204 94.6133 86.9301 93.8969 86.9301 92.9943C86.9301 92.3737 87.1108 91.8133 87.4722 91.3094C87.8336 90.8054 88.4015 90.5553 89.1759 90.5553C89.8728 90.5553 90.3892 90.8449 90.7248 91.4259C91.0603 92.007 91.2282 92.7103 91.2282 93.5358V94.194Z" fill="black"/>
<path fill-rule="evenodd" clip-rule="evenodd" d="M100.986 86.217V113.865H107.724V93.265H107.801L111.635 113.865H116.823L120.657 93.265H120.734V113.865H127.472V86.217H117.172L114.268 102.598H114.19L111.286 86.217H100.986Z" fill="black"/>
<path fill-rule="evenodd" clip-rule="evenodd" d="M139.63 91.8716L137.655 103.604H141.682L139.708 91.8716H139.63ZM144.199 86.217L150.937 113.865H143.27L142.534 109.025H136.804L136.068 113.865H128.517L135.139 86.217H144.199Z" fill="black"/>
<path fill-rule="evenodd" clip-rule="evenodd" d="M152.137 86.217V113.865H158.875V96.7889H158.952L163.754 113.865H171.654V86.217H164.915V103.256H164.838L160.191 86.217H152.137Z" fill="black"/>
</svg>
